G04 #@! TF.GenerationSoftware,KiCad,Pcbnew,(5.1.5)-3*
G04 #@! TF.CreationDate,2019-12-26T10:02:20-08:00*
G04 #@! TF.ProjectId,esp8266_bcard,65737038-3236-4365-9f62-636172642e6b,rev?*
G04 #@! TF.SameCoordinates,Original*
G04 #@! TF.FileFunction,Copper,L2,Bot*
G04 #@! TF.FilePolarity,Positive*
%FSLAX46Y46*%
G04 Gerber Fmt 4.6, Leading zero omitted, Abs format (unit mm)*
G04 Created by KiCad (PCBNEW (5.1.5)-3) date 2019-12-26 10:02:20*
%MOMM*%
%LPD*%
G04 APERTURE LIST*
%ADD10O,2.500000X1.100000*%
%ADD11O,1.100000X2.500000*%
%ADD12R,1.100000X2.500000*%
%ADD13O,1.700000X1.700000*%
%ADD14R,1.700000X1.700000*%
%ADD15C,0.762000*%
%ADD16C,0.254000*%
%ADD17C,0.250000*%
G04 APERTURE END LIST*
D10*
X160830000Y-122450000D03*
X160830000Y-120450000D03*
X160830000Y-118450000D03*
X160830000Y-116450000D03*
X160830000Y-114450000D03*
X160830000Y-112450000D03*
D11*
X176530000Y-125160000D03*
X174530000Y-125160000D03*
X172530000Y-125160000D03*
X170530000Y-125160000D03*
X168530000Y-125160000D03*
X166530000Y-125160000D03*
X164530000Y-125060000D03*
X162530000Y-125160000D03*
X162530000Y-109760000D03*
X164530000Y-109760000D03*
X166530000Y-109760000D03*
X168530000Y-109760000D03*
X170530000Y-109760000D03*
X172530000Y-109760000D03*
X174530000Y-109760000D03*
D12*
X176530000Y-109760000D03*
D13*
X160020000Y-129540000D03*
X162560000Y-129540000D03*
X165100000Y-129540000D03*
X167640000Y-129540000D03*
X170180000Y-129540000D03*
X172720000Y-129540000D03*
X175260000Y-129540000D03*
D14*
X177800000Y-129540000D03*
D15*
X162560000Y-124490000D02*
X162560000Y-129540000D01*
D16*
X162530000Y-124460000D02*
X162560000Y-124490000D01*
X165100000Y-129540000D02*
X166878000Y-127762000D01*
X166878000Y-127762000D02*
X172466000Y-127762000D01*
X172466000Y-127762000D02*
X173260000Y-126968000D01*
D17*
X174530000Y-125698000D02*
X174530000Y-124460000D01*
X173260000Y-126968000D02*
X174530000Y-125698000D01*
D16*
X167640000Y-129540000D02*
X168910000Y-128270000D01*
X168910000Y-128270000D02*
X173990000Y-128270000D01*
X173990000Y-128270000D02*
X175260000Y-127000000D01*
D17*
X176530000Y-125730000D02*
X176530000Y-124460000D01*
X175260000Y-127000000D02*
X176530000Y-125730000D01*
M02*
