G04 #@! TF.GenerationSoftware,KiCad,Pcbnew,(5.1.5)-3*
G04 #@! TF.CreationDate,2019-12-26T10:02:20-08:00*
G04 #@! TF.ProjectId,esp8266_bcard,65737038-3236-4365-9f62-636172642e6b,rev?*
G04 #@! TF.SameCoordinates,Original*
G04 #@! TF.FileFunction,Legend,Top*
G04 #@! TF.FilePolarity,Positive*
%FSLAX46Y46*%
G04 Gerber Fmt 4.6, Leading zero omitted, Abs format (unit mm)*
G04 Created by KiCad (PCBNEW (5.1.5)-3) date 2019-12-26 10:02:20*
%MOMM*%
%LPD*%
G04 APERTURE LIST*
%ADD10C,0.330200*%
%ADD11C,0.177800*%
%ADD12C,0.152400*%
%ADD13C,0.120000*%
%ADD14C,0.076200*%
G04 APERTURE END LIST*
D10*
X133301619Y-86860138D02*
X133301619Y-84828138D01*
X134269238Y-86860138D02*
X134269238Y-84828138D01*
X134946571Y-86279566D01*
X135623904Y-84828138D01*
X135623904Y-86860138D01*
X136494761Y-86279566D02*
X137462380Y-86279566D01*
X136301238Y-86860138D02*
X136978571Y-84828138D01*
X137655904Y-86860138D01*
X138333238Y-86860138D02*
X138333238Y-84828138D01*
X139494380Y-86860138D01*
X139494380Y-84828138D01*
X142010190Y-86860138D02*
X142010190Y-84828138D01*
X142784285Y-84828138D01*
X142977809Y-84924900D01*
X143074571Y-85021661D01*
X143171333Y-85215185D01*
X143171333Y-85505471D01*
X143074571Y-85698995D01*
X142977809Y-85795757D01*
X142784285Y-85892519D01*
X142010190Y-85892519D01*
X145203333Y-86860138D02*
X144526000Y-85892519D01*
X144042190Y-86860138D02*
X144042190Y-84828138D01*
X144816285Y-84828138D01*
X145009809Y-84924900D01*
X145106571Y-85021661D01*
X145203333Y-85215185D01*
X145203333Y-85505471D01*
X145106571Y-85698995D01*
X145009809Y-85795757D01*
X144816285Y-85892519D01*
X144042190Y-85892519D01*
X145977428Y-86279566D02*
X146945047Y-86279566D01*
X145783904Y-86860138D02*
X146461238Y-84828138D01*
X147138571Y-86860138D01*
X148202952Y-85892519D02*
X148202952Y-86860138D01*
X147525619Y-84828138D02*
X148202952Y-85892519D01*
X148880285Y-84828138D01*
X149557619Y-84828138D02*
X149557619Y-86473090D01*
X149654380Y-86666614D01*
X149751142Y-86763376D01*
X149944666Y-86860138D01*
X150331714Y-86860138D01*
X150525238Y-86763376D01*
X150622000Y-86666614D01*
X150718761Y-86473090D01*
X150718761Y-84828138D01*
X151686380Y-86860138D02*
X151686380Y-84828138D01*
X152170190Y-84828138D01*
X152460476Y-84924900D01*
X152654000Y-85118423D01*
X152750761Y-85311947D01*
X152847523Y-85698995D01*
X152847523Y-85989280D01*
X152750761Y-86376328D01*
X152654000Y-86569852D01*
X152460476Y-86763376D01*
X152170190Y-86860138D01*
X151686380Y-86860138D01*
X153718380Y-86860138D02*
X153718380Y-84828138D01*
X128802190Y-90238338D02*
X128802190Y-88883671D01*
X128802190Y-88206338D02*
X128705428Y-88303100D01*
X128802190Y-88399861D01*
X128898952Y-88303100D01*
X128802190Y-88206338D01*
X128802190Y-88399861D01*
X129769809Y-88883671D02*
X129769809Y-90915671D01*
X129769809Y-88980433D02*
X129963333Y-88883671D01*
X130350380Y-88883671D01*
X130543904Y-88980433D01*
X130640666Y-89077195D01*
X130737428Y-89270719D01*
X130737428Y-89851290D01*
X130640666Y-90044814D01*
X130543904Y-90141576D01*
X130350380Y-90238338D01*
X129963333Y-90238338D01*
X129769809Y-90141576D01*
X131608285Y-90238338D02*
X131608285Y-88883671D01*
X131608285Y-89270719D02*
X131705047Y-89077195D01*
X131801809Y-88980433D01*
X131995333Y-88883671D01*
X132188857Y-88883671D01*
X133737047Y-90238338D02*
X133737047Y-89173957D01*
X133640285Y-88980433D01*
X133446761Y-88883671D01*
X133059714Y-88883671D01*
X132866190Y-88980433D01*
X133737047Y-90141576D02*
X133543523Y-90238338D01*
X133059714Y-90238338D01*
X132866190Y-90141576D01*
X132769428Y-89948052D01*
X132769428Y-89754528D01*
X132866190Y-89561004D01*
X133059714Y-89464242D01*
X133543523Y-89464242D01*
X133737047Y-89367480D01*
X134511142Y-88883671D02*
X134994952Y-90238338D01*
X135478761Y-88883671D02*
X134994952Y-90238338D01*
X134801428Y-90722147D01*
X134704666Y-90818909D01*
X134511142Y-90915671D01*
X137123714Y-88883671D02*
X137123714Y-90238338D01*
X136252857Y-88883671D02*
X136252857Y-89948052D01*
X136349619Y-90141576D01*
X136543142Y-90238338D01*
X136833428Y-90238338D01*
X137026952Y-90141576D01*
X137123714Y-90044814D01*
X138962190Y-90238338D02*
X138962190Y-88206338D01*
X138962190Y-90141576D02*
X138768666Y-90238338D01*
X138381619Y-90238338D01*
X138188095Y-90141576D01*
X138091333Y-90044814D01*
X137994571Y-89851290D01*
X137994571Y-89270719D01*
X138091333Y-89077195D01*
X138188095Y-88980433D01*
X138381619Y-88883671D01*
X138768666Y-88883671D01*
X138962190Y-88980433D01*
X139929809Y-90238338D02*
X139929809Y-88883671D01*
X139929809Y-88206338D02*
X139833047Y-88303100D01*
X139929809Y-88399861D01*
X140026571Y-88303100D01*
X139929809Y-88206338D01*
X139929809Y-88399861D01*
X142155333Y-89270719D02*
X142058571Y-89173957D01*
X141865047Y-89077195D01*
X141671523Y-89077195D01*
X141478000Y-89173957D01*
X141381238Y-89270719D01*
X141284476Y-89464242D01*
X141284476Y-89657766D01*
X141381238Y-89851290D01*
X141478000Y-89948052D01*
X141671523Y-90044814D01*
X141865047Y-90044814D01*
X142058571Y-89948052D01*
X142155333Y-89851290D01*
X142155333Y-89077195D02*
X142155333Y-89851290D01*
X142252095Y-89948052D01*
X142348857Y-89948052D01*
X142542380Y-89851290D01*
X142639142Y-89657766D01*
X142639142Y-89173957D01*
X142445619Y-88883671D01*
X142155333Y-88690147D01*
X141768285Y-88593385D01*
X141381238Y-88690147D01*
X141090952Y-88883671D01*
X140897428Y-89173957D01*
X140800666Y-89561004D01*
X140897428Y-89948052D01*
X141090952Y-90238338D01*
X141381238Y-90431861D01*
X141768285Y-90528623D01*
X142155333Y-90431861D01*
X142445619Y-90238338D01*
X144380857Y-88883671D02*
X144380857Y-90528623D01*
X144284095Y-90722147D01*
X144187333Y-90818909D01*
X143993809Y-90915671D01*
X143703523Y-90915671D01*
X143510000Y-90818909D01*
X144380857Y-90141576D02*
X144187333Y-90238338D01*
X143800285Y-90238338D01*
X143606761Y-90141576D01*
X143510000Y-90044814D01*
X143413238Y-89851290D01*
X143413238Y-89270719D01*
X143510000Y-89077195D01*
X143606761Y-88980433D01*
X143800285Y-88883671D01*
X144187333Y-88883671D01*
X144380857Y-88980433D01*
X145348476Y-90238338D02*
X145348476Y-88883671D01*
X145348476Y-89077195D02*
X145445238Y-88980433D01*
X145638761Y-88883671D01*
X145929047Y-88883671D01*
X146122571Y-88980433D01*
X146219333Y-89173957D01*
X146219333Y-90238338D01*
X146219333Y-89173957D02*
X146316095Y-88980433D01*
X146509619Y-88883671D01*
X146799904Y-88883671D01*
X146993428Y-88980433D01*
X147090190Y-89173957D01*
X147090190Y-90238338D01*
X148928666Y-90238338D02*
X148928666Y-89173957D01*
X148831904Y-88980433D01*
X148638380Y-88883671D01*
X148251333Y-88883671D01*
X148057809Y-88980433D01*
X148928666Y-90141576D02*
X148735142Y-90238338D01*
X148251333Y-90238338D01*
X148057809Y-90141576D01*
X147961047Y-89948052D01*
X147961047Y-89754528D01*
X148057809Y-89561004D01*
X148251333Y-89464242D01*
X148735142Y-89464242D01*
X148928666Y-89367480D01*
X149896285Y-90238338D02*
X149896285Y-88883671D01*
X149896285Y-88206338D02*
X149799523Y-88303100D01*
X149896285Y-88399861D01*
X149993047Y-88303100D01*
X149896285Y-88206338D01*
X149896285Y-88399861D01*
X151154190Y-90238338D02*
X150960666Y-90141576D01*
X150863904Y-89948052D01*
X150863904Y-88206338D01*
X151928285Y-90044814D02*
X152025047Y-90141576D01*
X151928285Y-90238338D01*
X151831523Y-90141576D01*
X151928285Y-90044814D01*
X151928285Y-90238338D01*
X153766761Y-90141576D02*
X153573238Y-90238338D01*
X153186190Y-90238338D01*
X152992666Y-90141576D01*
X152895904Y-90044814D01*
X152799142Y-89851290D01*
X152799142Y-89270719D01*
X152895904Y-89077195D01*
X152992666Y-88980433D01*
X153186190Y-88883671D01*
X153573238Y-88883671D01*
X153766761Y-88980433D01*
X154927904Y-90238338D02*
X154734380Y-90141576D01*
X154637619Y-90044814D01*
X154540857Y-89851290D01*
X154540857Y-89270719D01*
X154637619Y-89077195D01*
X154734380Y-88980433D01*
X154927904Y-88883671D01*
X155218190Y-88883671D01*
X155411714Y-88980433D01*
X155508476Y-89077195D01*
X155605238Y-89270719D01*
X155605238Y-89851290D01*
X155508476Y-90044814D01*
X155411714Y-90141576D01*
X155218190Y-90238338D01*
X154927904Y-90238338D01*
X156476095Y-90238338D02*
X156476095Y-88883671D01*
X156476095Y-89077195D02*
X156572857Y-88980433D01*
X156766380Y-88883671D01*
X157056666Y-88883671D01*
X157250190Y-88980433D01*
X157346952Y-89173957D01*
X157346952Y-90238338D01*
X157346952Y-89173957D02*
X157443714Y-88980433D01*
X157637238Y-88883671D01*
X157927523Y-88883671D01*
X158121047Y-88980433D01*
X158217809Y-89173957D01*
X158217809Y-90238338D01*
D11*
X124176427Y-97360921D02*
X123523284Y-97360921D01*
X123849855Y-97360921D02*
X123849855Y-96217921D01*
X123740998Y-96381207D01*
X123632141Y-96490064D01*
X123523284Y-96544492D01*
X124666284Y-97252064D02*
X124720712Y-97306492D01*
X124666284Y-97360921D01*
X124611855Y-97306492D01*
X124666284Y-97252064D01*
X124666284Y-97360921D01*
X126734570Y-97252064D02*
X126680141Y-97306492D01*
X126516855Y-97360921D01*
X126407998Y-97360921D01*
X126244712Y-97306492D01*
X126135855Y-97197635D01*
X126081427Y-97088778D01*
X126026998Y-96871064D01*
X126026998Y-96707778D01*
X126081427Y-96490064D01*
X126135855Y-96381207D01*
X126244712Y-96272350D01*
X126407998Y-96217921D01*
X126516855Y-96217921D01*
X126680141Y-96272350D01*
X126734570Y-96326778D01*
X127387712Y-97360921D02*
X127278855Y-97306492D01*
X127224427Y-97252064D01*
X127169998Y-97143207D01*
X127169998Y-96816635D01*
X127224427Y-96707778D01*
X127278855Y-96653350D01*
X127387712Y-96598921D01*
X127550998Y-96598921D01*
X127659855Y-96653350D01*
X127714284Y-96707778D01*
X127768712Y-96816635D01*
X127768712Y-97143207D01*
X127714284Y-97252064D01*
X127659855Y-97306492D01*
X127550998Y-97360921D01*
X127387712Y-97360921D01*
X128258570Y-96598921D02*
X128258570Y-97360921D01*
X128258570Y-96707778D02*
X128312998Y-96653350D01*
X128421855Y-96598921D01*
X128585141Y-96598921D01*
X128693998Y-96653350D01*
X128748427Y-96762207D01*
X128748427Y-97360921D01*
X129292712Y-96598921D02*
X129292712Y-97360921D01*
X129292712Y-96707778D02*
X129347141Y-96653350D01*
X129455998Y-96598921D01*
X129619284Y-96598921D01*
X129728141Y-96653350D01*
X129782570Y-96762207D01*
X129782570Y-97360921D01*
X130762284Y-97306492D02*
X130653427Y-97360921D01*
X130435712Y-97360921D01*
X130326855Y-97306492D01*
X130272427Y-97197635D01*
X130272427Y-96762207D01*
X130326855Y-96653350D01*
X130435712Y-96598921D01*
X130653427Y-96598921D01*
X130762284Y-96653350D01*
X130816712Y-96762207D01*
X130816712Y-96871064D01*
X130272427Y-96979921D01*
X131796427Y-97306492D02*
X131687570Y-97360921D01*
X131469855Y-97360921D01*
X131360998Y-97306492D01*
X131306570Y-97252064D01*
X131252141Y-97143207D01*
X131252141Y-96816635D01*
X131306570Y-96707778D01*
X131360998Y-96653350D01*
X131469855Y-96598921D01*
X131687570Y-96598921D01*
X131796427Y-96653350D01*
X132122998Y-96598921D02*
X132558427Y-96598921D01*
X132286284Y-96217921D02*
X132286284Y-97197635D01*
X132340712Y-97306492D01*
X132449570Y-97360921D01*
X132558427Y-97360921D01*
X133701427Y-96598921D02*
X133973570Y-97360921D01*
X134245712Y-96598921D02*
X133973570Y-97360921D01*
X133864712Y-97633064D01*
X133810284Y-97687492D01*
X133701427Y-97741921D01*
X134844427Y-97360921D02*
X134735570Y-97306492D01*
X134681141Y-97252064D01*
X134626712Y-97143207D01*
X134626712Y-96816635D01*
X134681141Y-96707778D01*
X134735570Y-96653350D01*
X134844427Y-96598921D01*
X135007712Y-96598921D01*
X135116570Y-96653350D01*
X135170998Y-96707778D01*
X135225427Y-96816635D01*
X135225427Y-97143207D01*
X135170998Y-97252064D01*
X135116570Y-97306492D01*
X135007712Y-97360921D01*
X134844427Y-97360921D01*
X136205141Y-96598921D02*
X136205141Y-97360921D01*
X135715284Y-96598921D02*
X135715284Y-97197635D01*
X135769712Y-97306492D01*
X135878570Y-97360921D01*
X136041855Y-97360921D01*
X136150712Y-97306492D01*
X136205141Y-97252064D01*
X136749427Y-97360921D02*
X136749427Y-96598921D01*
X136749427Y-96816635D02*
X136803855Y-96707778D01*
X136858284Y-96653350D01*
X136967141Y-96598921D01*
X137075998Y-96598921D01*
X138218998Y-96598921D02*
X138436712Y-97360921D01*
X138654427Y-96816635D01*
X138872141Y-97360921D01*
X139089855Y-96598921D01*
X139525284Y-97360921D02*
X139525284Y-96598921D01*
X139525284Y-96217921D02*
X139470855Y-96272350D01*
X139525284Y-96326778D01*
X139579712Y-96272350D01*
X139525284Y-96217921D01*
X139525284Y-96326778D01*
X139906284Y-96598921D02*
X140341712Y-96598921D01*
X140069570Y-97360921D02*
X140069570Y-96381207D01*
X140123998Y-96272350D01*
X140232855Y-96217921D01*
X140341712Y-96217921D01*
X140722712Y-97360921D02*
X140722712Y-96598921D01*
X140722712Y-96217921D02*
X140668284Y-96272350D01*
X140722712Y-96326778D01*
X140777141Y-96272350D01*
X140722712Y-96217921D01*
X140722712Y-96326778D01*
X141974570Y-96598921D02*
X142409998Y-96598921D01*
X142137855Y-96217921D02*
X142137855Y-97197635D01*
X142192284Y-97306492D01*
X142301141Y-97360921D01*
X142409998Y-97360921D01*
X142954284Y-97360921D02*
X142845427Y-97306492D01*
X142790998Y-97252064D01*
X142736570Y-97143207D01*
X142736570Y-96816635D01*
X142790998Y-96707778D01*
X142845427Y-96653350D01*
X142954284Y-96598921D01*
X143117570Y-96598921D01*
X143226427Y-96653350D01*
X143280855Y-96707778D01*
X143335284Y-96816635D01*
X143335284Y-97143207D01*
X143280855Y-97252064D01*
X143226427Y-97306492D01*
X143117570Y-97360921D01*
X142954284Y-97360921D01*
X144641570Y-96217921D02*
X144641570Y-96435635D01*
X145076998Y-96217921D02*
X145076998Y-96435635D01*
X146219998Y-97252064D02*
X146165570Y-97306492D01*
X146002284Y-97360921D01*
X145893427Y-97360921D01*
X145730141Y-97306492D01*
X145621284Y-97197635D01*
X145566855Y-97088778D01*
X145512427Y-96871064D01*
X145512427Y-96707778D01*
X145566855Y-96490064D01*
X145621284Y-96381207D01*
X145730141Y-96272350D01*
X145893427Y-96217921D01*
X146002284Y-96217921D01*
X146165570Y-96272350D01*
X146219998Y-96326778D01*
X146546570Y-96217921D02*
X146927570Y-97360921D01*
X147308570Y-96217921D01*
X147689570Y-96925492D02*
X148560427Y-96925492D01*
X149104712Y-97360921D02*
X149104712Y-96217921D01*
X149648998Y-97360921D02*
X149648998Y-96598921D01*
X149648998Y-96707778D02*
X149703427Y-96653350D01*
X149812284Y-96598921D01*
X149975570Y-96598921D01*
X150084427Y-96653350D01*
X150138855Y-96762207D01*
X150138855Y-97360921D01*
X150138855Y-96762207D02*
X150193284Y-96653350D01*
X150302141Y-96598921D01*
X150465427Y-96598921D01*
X150574284Y-96653350D01*
X150628712Y-96762207D01*
X150628712Y-97360921D01*
X151662855Y-97360921D02*
X151662855Y-96762207D01*
X151608427Y-96653350D01*
X151499570Y-96598921D01*
X151281855Y-96598921D01*
X151172998Y-96653350D01*
X151662855Y-97306492D02*
X151553998Y-97360921D01*
X151281855Y-97360921D01*
X151172998Y-97306492D01*
X151118570Y-97197635D01*
X151118570Y-97088778D01*
X151172998Y-96979921D01*
X151281855Y-96925492D01*
X151553998Y-96925492D01*
X151662855Y-96871064D01*
X152207141Y-96598921D02*
X152207141Y-97360921D01*
X152207141Y-96707778D02*
X152261570Y-96653350D01*
X152370427Y-96598921D01*
X152533712Y-96598921D01*
X152642570Y-96653350D01*
X152696998Y-96762207D01*
X152696998Y-97360921D01*
X154112141Y-97360921D02*
X154112141Y-96217921D01*
X154547570Y-96217921D01*
X154656427Y-96272350D01*
X154710855Y-96326778D01*
X154765284Y-96435635D01*
X154765284Y-96598921D01*
X154710855Y-96707778D01*
X154656427Y-96762207D01*
X154547570Y-96816635D01*
X154112141Y-96816635D01*
X155255141Y-97360921D02*
X155255141Y-96598921D01*
X155255141Y-96816635D02*
X155309570Y-96707778D01*
X155363998Y-96653350D01*
X155472855Y-96598921D01*
X155581712Y-96598921D01*
X156452570Y-97360921D02*
X156452570Y-96762207D01*
X156398141Y-96653350D01*
X156289284Y-96598921D01*
X156071570Y-96598921D01*
X155962712Y-96653350D01*
X156452570Y-97306492D02*
X156343712Y-97360921D01*
X156071570Y-97360921D01*
X155962712Y-97306492D01*
X155908284Y-97197635D01*
X155908284Y-97088778D01*
X155962712Y-96979921D01*
X156071570Y-96925492D01*
X156343712Y-96925492D01*
X156452570Y-96871064D01*
X156887998Y-96598921D02*
X157160141Y-97360921D01*
X157432284Y-96598921D02*
X157160141Y-97360921D01*
X157051284Y-97633064D01*
X156996855Y-97687492D01*
X156887998Y-97741921D01*
X158357570Y-96598921D02*
X158357570Y-97360921D01*
X157867712Y-96598921D02*
X157867712Y-97197635D01*
X157922141Y-97306492D01*
X158030998Y-97360921D01*
X158194284Y-97360921D01*
X158303141Y-97306492D01*
X158357570Y-97252064D01*
X159391712Y-97360921D02*
X159391712Y-96217921D01*
X159391712Y-97306492D02*
X159282855Y-97360921D01*
X159065141Y-97360921D01*
X158956284Y-97306492D01*
X158901855Y-97252064D01*
X158847427Y-97143207D01*
X158847427Y-96816635D01*
X158901855Y-96707778D01*
X158956284Y-96653350D01*
X159065141Y-96598921D01*
X159282855Y-96598921D01*
X159391712Y-96653350D01*
X159935998Y-97360921D02*
X159935998Y-96598921D01*
X159935998Y-96217921D02*
X159881570Y-96272350D01*
X159935998Y-96326778D01*
X159990427Y-96272350D01*
X159935998Y-96217921D01*
X159935998Y-96326778D01*
X160425855Y-96217921D02*
X160425855Y-96435635D01*
X160861284Y-96217921D02*
X160861284Y-96435635D01*
X123523284Y-98219078D02*
X123577712Y-98164650D01*
X123686570Y-98110221D01*
X123958712Y-98110221D01*
X124067570Y-98164650D01*
X124121998Y-98219078D01*
X124176427Y-98327935D01*
X124176427Y-98436792D01*
X124121998Y-98600078D01*
X123468855Y-99253221D01*
X124176427Y-99253221D01*
X124666284Y-99144364D02*
X124720712Y-99198792D01*
X124666284Y-99253221D01*
X124611855Y-99198792D01*
X124666284Y-99144364D01*
X124666284Y-99253221D01*
X126299141Y-98110221D02*
X126516855Y-98110221D01*
X126625712Y-98164650D01*
X126734570Y-98273507D01*
X126788998Y-98491221D01*
X126788998Y-98872221D01*
X126734570Y-99089935D01*
X126625712Y-99198792D01*
X126516855Y-99253221D01*
X126299141Y-99253221D01*
X126190284Y-99198792D01*
X126081427Y-99089935D01*
X126026998Y-98872221D01*
X126026998Y-98491221D01*
X126081427Y-98273507D01*
X126190284Y-98164650D01*
X126299141Y-98110221D01*
X127278855Y-98491221D02*
X127278855Y-99634221D01*
X127278855Y-98545650D02*
X127387712Y-98491221D01*
X127605427Y-98491221D01*
X127714284Y-98545650D01*
X127768712Y-98600078D01*
X127823141Y-98708935D01*
X127823141Y-99035507D01*
X127768712Y-99144364D01*
X127714284Y-99198792D01*
X127605427Y-99253221D01*
X127387712Y-99253221D01*
X127278855Y-99198792D01*
X128748427Y-99198792D02*
X128639570Y-99253221D01*
X128421855Y-99253221D01*
X128312998Y-99198792D01*
X128258570Y-99089935D01*
X128258570Y-98654507D01*
X128312998Y-98545650D01*
X128421855Y-98491221D01*
X128639570Y-98491221D01*
X128748427Y-98545650D01*
X128802855Y-98654507D01*
X128802855Y-98763364D01*
X128258570Y-98872221D01*
X129292712Y-98491221D02*
X129292712Y-99253221D01*
X129292712Y-98600078D02*
X129347141Y-98545650D01*
X129455998Y-98491221D01*
X129619284Y-98491221D01*
X129728141Y-98545650D01*
X129782570Y-98654507D01*
X129782570Y-99253221D01*
X131088855Y-98491221D02*
X131306570Y-99253221D01*
X131524284Y-98708935D01*
X131741998Y-99253221D01*
X131959712Y-98491221D01*
X132830570Y-99198792D02*
X132721712Y-99253221D01*
X132503998Y-99253221D01*
X132395141Y-99198792D01*
X132340712Y-99089935D01*
X132340712Y-98654507D01*
X132395141Y-98545650D01*
X132503998Y-98491221D01*
X132721712Y-98491221D01*
X132830570Y-98545650D01*
X132884998Y-98654507D01*
X132884998Y-98763364D01*
X132340712Y-98872221D01*
X133374855Y-99253221D02*
X133374855Y-98110221D01*
X133374855Y-98545650D02*
X133483712Y-98491221D01*
X133701427Y-98491221D01*
X133810284Y-98545650D01*
X133864712Y-98600078D01*
X133919141Y-98708935D01*
X133919141Y-99035507D01*
X133864712Y-99144364D01*
X133810284Y-99198792D01*
X133701427Y-99253221D01*
X133483712Y-99253221D01*
X133374855Y-99198792D01*
X135279855Y-99253221D02*
X135279855Y-98110221D01*
X135279855Y-98545650D02*
X135388712Y-98491221D01*
X135606427Y-98491221D01*
X135715284Y-98545650D01*
X135769712Y-98600078D01*
X135824141Y-98708935D01*
X135824141Y-99035507D01*
X135769712Y-99144364D01*
X135715284Y-99198792D01*
X135606427Y-99253221D01*
X135388712Y-99253221D01*
X135279855Y-99198792D01*
X136313998Y-99253221D02*
X136313998Y-98491221D01*
X136313998Y-98708935D02*
X136368427Y-98600078D01*
X136422855Y-98545650D01*
X136531712Y-98491221D01*
X136640570Y-98491221D01*
X137184855Y-99253221D02*
X137075998Y-99198792D01*
X137021570Y-99144364D01*
X136967141Y-99035507D01*
X136967141Y-98708935D01*
X137021570Y-98600078D01*
X137075998Y-98545650D01*
X137184855Y-98491221D01*
X137348141Y-98491221D01*
X137456998Y-98545650D01*
X137511427Y-98600078D01*
X137565855Y-98708935D01*
X137565855Y-99035507D01*
X137511427Y-99144364D01*
X137456998Y-99198792D01*
X137348141Y-99253221D01*
X137184855Y-99253221D01*
X137946855Y-98491221D02*
X138164570Y-99253221D01*
X138382284Y-98708935D01*
X138599998Y-99253221D01*
X138817712Y-98491221D01*
X139198712Y-99198792D02*
X139307570Y-99253221D01*
X139525284Y-99253221D01*
X139634141Y-99198792D01*
X139688570Y-99089935D01*
X139688570Y-99035507D01*
X139634141Y-98926650D01*
X139525284Y-98872221D01*
X139361998Y-98872221D01*
X139253141Y-98817792D01*
X139198712Y-98708935D01*
X139198712Y-98654507D01*
X139253141Y-98545650D01*
X139361998Y-98491221D01*
X139525284Y-98491221D01*
X139634141Y-98545650D01*
X140613855Y-99198792D02*
X140504998Y-99253221D01*
X140287284Y-99253221D01*
X140178427Y-99198792D01*
X140123998Y-99089935D01*
X140123998Y-98654507D01*
X140178427Y-98545650D01*
X140287284Y-98491221D01*
X140504998Y-98491221D01*
X140613855Y-98545650D01*
X140668284Y-98654507D01*
X140668284Y-98763364D01*
X140123998Y-98872221D01*
X141158141Y-99253221D02*
X141158141Y-98491221D01*
X141158141Y-98708935D02*
X141212570Y-98600078D01*
X141266998Y-98545650D01*
X141375855Y-98491221D01*
X141484712Y-98491221D01*
X143226427Y-99253221D02*
X143226427Y-98654507D01*
X143171998Y-98545650D01*
X143063141Y-98491221D01*
X142845427Y-98491221D01*
X142736570Y-98545650D01*
X143226427Y-99198792D02*
X143117570Y-99253221D01*
X142845427Y-99253221D01*
X142736570Y-99198792D01*
X142682141Y-99089935D01*
X142682141Y-98981078D01*
X142736570Y-98872221D01*
X142845427Y-98817792D01*
X143117570Y-98817792D01*
X143226427Y-98763364D01*
X143770712Y-98491221D02*
X143770712Y-99253221D01*
X143770712Y-98600078D02*
X143825141Y-98545650D01*
X143933998Y-98491221D01*
X144097284Y-98491221D01*
X144206141Y-98545650D01*
X144260570Y-98654507D01*
X144260570Y-99253221D01*
X145294712Y-99253221D02*
X145294712Y-98110221D01*
X145294712Y-99198792D02*
X145185855Y-99253221D01*
X144968141Y-99253221D01*
X144859284Y-99198792D01*
X144804855Y-99144364D01*
X144750427Y-99035507D01*
X144750427Y-98708935D01*
X144804855Y-98600078D01*
X144859284Y-98545650D01*
X144968141Y-98491221D01*
X145185855Y-98491221D01*
X145294712Y-98545650D01*
X147145284Y-99198792D02*
X147036427Y-99253221D01*
X146818712Y-99253221D01*
X146709855Y-99198792D01*
X146655427Y-99089935D01*
X146655427Y-98654507D01*
X146709855Y-98545650D01*
X146818712Y-98491221D01*
X147036427Y-98491221D01*
X147145284Y-98545650D01*
X147199712Y-98654507D01*
X147199712Y-98763364D01*
X146655427Y-98872221D01*
X147689570Y-98491221D02*
X147689570Y-99253221D01*
X147689570Y-98600078D02*
X147743998Y-98545650D01*
X147852855Y-98491221D01*
X148016141Y-98491221D01*
X148124998Y-98545650D01*
X148179427Y-98654507D01*
X148179427Y-99253221D01*
X148560427Y-98491221D02*
X148995855Y-98491221D01*
X148723712Y-98110221D02*
X148723712Y-99089935D01*
X148778141Y-99198792D01*
X148886998Y-99253221D01*
X148995855Y-99253221D01*
X149812284Y-99198792D02*
X149703427Y-99253221D01*
X149485712Y-99253221D01*
X149376855Y-99198792D01*
X149322427Y-99089935D01*
X149322427Y-98654507D01*
X149376855Y-98545650D01*
X149485712Y-98491221D01*
X149703427Y-98491221D01*
X149812284Y-98545650D01*
X149866712Y-98654507D01*
X149866712Y-98763364D01*
X149322427Y-98872221D01*
X150356570Y-99253221D02*
X150356570Y-98491221D01*
X150356570Y-98708935D02*
X150410998Y-98600078D01*
X150465427Y-98545650D01*
X150574284Y-98491221D01*
X150683141Y-98491221D01*
X152533712Y-99253221D02*
X151880570Y-99253221D01*
X152207141Y-99253221D02*
X152207141Y-98110221D01*
X152098284Y-98273507D01*
X151989427Y-98382364D01*
X151880570Y-98436792D01*
X153077998Y-99253221D02*
X153295712Y-99253221D01*
X153404570Y-99198792D01*
X153458998Y-99144364D01*
X153567855Y-98981078D01*
X153622284Y-98763364D01*
X153622284Y-98327935D01*
X153567855Y-98219078D01*
X153513427Y-98164650D01*
X153404570Y-98110221D01*
X153186855Y-98110221D01*
X153077998Y-98164650D01*
X153023570Y-98219078D01*
X152969141Y-98327935D01*
X152969141Y-98600078D01*
X153023570Y-98708935D01*
X153077998Y-98763364D01*
X153186855Y-98817792D01*
X153404570Y-98817792D01*
X153513427Y-98763364D01*
X153567855Y-98708935D01*
X153622284Y-98600078D01*
X154057712Y-98219078D02*
X154112141Y-98164650D01*
X154220998Y-98110221D01*
X154493141Y-98110221D01*
X154601998Y-98164650D01*
X154656427Y-98219078D01*
X154710855Y-98327935D01*
X154710855Y-98436792D01*
X154656427Y-98600078D01*
X154003284Y-99253221D01*
X154710855Y-99253221D01*
X155200712Y-99144364D02*
X155255141Y-99198792D01*
X155200712Y-99253221D01*
X155146284Y-99198792D01*
X155200712Y-99144364D01*
X155200712Y-99253221D01*
X156343712Y-99253221D02*
X155690570Y-99253221D01*
X156017141Y-99253221D02*
X156017141Y-98110221D01*
X155908284Y-98273507D01*
X155799427Y-98382364D01*
X155690570Y-98436792D01*
X157323427Y-98110221D02*
X157105712Y-98110221D01*
X156996855Y-98164650D01*
X156942427Y-98219078D01*
X156833570Y-98382364D01*
X156779141Y-98600078D01*
X156779141Y-99035507D01*
X156833570Y-99144364D01*
X156887998Y-99198792D01*
X156996855Y-99253221D01*
X157214570Y-99253221D01*
X157323427Y-99198792D01*
X157377855Y-99144364D01*
X157432284Y-99035507D01*
X157432284Y-98763364D01*
X157377855Y-98654507D01*
X157323427Y-98600078D01*
X157214570Y-98545650D01*
X156996855Y-98545650D01*
X156887998Y-98600078D01*
X156833570Y-98654507D01*
X156779141Y-98763364D01*
X158085427Y-98600078D02*
X157976570Y-98545650D01*
X157922141Y-98491221D01*
X157867712Y-98382364D01*
X157867712Y-98327935D01*
X157922141Y-98219078D01*
X157976570Y-98164650D01*
X158085427Y-98110221D01*
X158303141Y-98110221D01*
X158411998Y-98164650D01*
X158466427Y-98219078D01*
X158520855Y-98327935D01*
X158520855Y-98382364D01*
X158466427Y-98491221D01*
X158411998Y-98545650D01*
X158303141Y-98600078D01*
X158085427Y-98600078D01*
X157976570Y-98654507D01*
X157922141Y-98708935D01*
X157867712Y-98817792D01*
X157867712Y-99035507D01*
X157922141Y-99144364D01*
X157976570Y-99198792D01*
X158085427Y-99253221D01*
X158303141Y-99253221D01*
X158411998Y-99198792D01*
X158466427Y-99144364D01*
X158520855Y-99035507D01*
X158520855Y-98817792D01*
X158466427Y-98708935D01*
X158411998Y-98654507D01*
X158303141Y-98600078D01*
X159010712Y-99144364D02*
X159065141Y-99198792D01*
X159010712Y-99253221D01*
X158956284Y-99198792D01*
X159010712Y-99144364D01*
X159010712Y-99253221D01*
X159500570Y-98219078D02*
X159554998Y-98164650D01*
X159663855Y-98110221D01*
X159935998Y-98110221D01*
X160044855Y-98164650D01*
X160099284Y-98219078D01*
X160153712Y-98327935D01*
X160153712Y-98436792D01*
X160099284Y-98600078D01*
X159446141Y-99253221D01*
X160153712Y-99253221D01*
X161242284Y-99253221D02*
X160589141Y-99253221D01*
X160915712Y-99253221D02*
X160915712Y-98110221D01*
X160806855Y-98273507D01*
X160697998Y-98382364D01*
X160589141Y-98436792D01*
X161732141Y-99144364D02*
X161786570Y-99198792D01*
X161732141Y-99253221D01*
X161677712Y-99198792D01*
X161732141Y-99144364D01*
X161732141Y-99253221D01*
X162167570Y-98110221D02*
X162929570Y-98110221D01*
X162439712Y-99253221D01*
D12*
X160909000Y-125446000D02*
X161671000Y-125446000D01*
X160909000Y-109444000D02*
X160909000Y-125446000D01*
X161671000Y-109444000D02*
X160909000Y-109444000D01*
D13*
X154176252Y-111050000D02*
X153653748Y-111050000D01*
X154176252Y-112470000D02*
X153653748Y-112470000D01*
X152055000Y-110180000D02*
X154915000Y-110180000D01*
X152055000Y-108260000D02*
X152055000Y-110180000D01*
X154915000Y-108260000D02*
X152055000Y-108260000D01*
X154176252Y-126290000D02*
X153653748Y-126290000D01*
X154176252Y-127710000D02*
X153653748Y-127710000D01*
X154176252Y-116130000D02*
X153653748Y-116130000D01*
X154176252Y-117550000D02*
X153653748Y-117550000D01*
X154176252Y-123750000D02*
X153653748Y-123750000D01*
X154176252Y-125170000D02*
X153653748Y-125170000D01*
X154176252Y-118670000D02*
X153653748Y-118670000D01*
X154176252Y-120090000D02*
X153653748Y-120090000D01*
X154176252Y-121210000D02*
X153653748Y-121210000D01*
X154176252Y-122630000D02*
X153653748Y-122630000D01*
X179130000Y-128210000D02*
X179130000Y-129540000D01*
X177800000Y-128210000D02*
X179130000Y-128210000D01*
X176530000Y-128210000D02*
X176530000Y-130870000D01*
X176530000Y-130870000D02*
X158690000Y-130870000D01*
X176530000Y-128210000D02*
X158690000Y-128210000D01*
X158690000Y-128210000D02*
X158690000Y-130870000D01*
X146520000Y-109058000D02*
X144120000Y-109058000D01*
X148530000Y-109058000D02*
X148120000Y-109058000D01*
X148530000Y-115478000D02*
X148530000Y-109058000D01*
X148120000Y-115478000D02*
X148530000Y-115478000D01*
X144120000Y-115478000D02*
X146520000Y-115478000D01*
X142110000Y-115478000D02*
X142390000Y-115478000D01*
X142110000Y-109058000D02*
X142110000Y-115478000D01*
X142520000Y-109058000D02*
X142110000Y-109058000D01*
X154176252Y-113590000D02*
X153653748Y-113590000D01*
X154176252Y-115010000D02*
X153653748Y-115010000D01*
X147318252Y-119432000D02*
X146795748Y-119432000D01*
X147318252Y-120852000D02*
X146795748Y-120852000D01*
X142096748Y-120852000D02*
X142619252Y-120852000D01*
X142096748Y-119432000D02*
X142619252Y-119432000D01*
X140807000Y-121812000D02*
X146817000Y-121812000D01*
X143057000Y-128632000D02*
X146817000Y-128632000D01*
X146817000Y-121812000D02*
X146817000Y-123072000D01*
X146817000Y-128632000D02*
X146817000Y-127372000D01*
D14*
X173781357Y-117100285D02*
X174089785Y-117100285D01*
X174126071Y-117082142D01*
X174144214Y-117064000D01*
X174162357Y-117027714D01*
X174162357Y-116955142D01*
X174144214Y-116918857D01*
X174126071Y-116900714D01*
X174089785Y-116882571D01*
X173781357Y-116882571D01*
X174162357Y-116501571D02*
X174162357Y-116719285D01*
X174162357Y-116610428D02*
X173781357Y-116610428D01*
X173835785Y-116646714D01*
X173872071Y-116683000D01*
X173890214Y-116719285D01*
X151937357Y-111823500D02*
X151755928Y-111950500D01*
X151937357Y-112041214D02*
X151556357Y-112041214D01*
X151556357Y-111896071D01*
X151574500Y-111859785D01*
X151592642Y-111841642D01*
X151628928Y-111823500D01*
X151683357Y-111823500D01*
X151719642Y-111841642D01*
X151737785Y-111859785D01*
X151755928Y-111896071D01*
X151755928Y-112041214D01*
X151556357Y-111696500D02*
X151556357Y-111442500D01*
X151937357Y-111605785D01*
X151937357Y-109501214D02*
X151556357Y-109501214D01*
X151556357Y-109410500D01*
X151574500Y-109356071D01*
X151610785Y-109319785D01*
X151647071Y-109301642D01*
X151719642Y-109283500D01*
X151774071Y-109283500D01*
X151846642Y-109301642D01*
X151882928Y-109319785D01*
X151919214Y-109356071D01*
X151937357Y-109410500D01*
X151937357Y-109501214D01*
X151937357Y-108920642D02*
X151937357Y-109138357D01*
X151937357Y-109029500D02*
X151556357Y-109029500D01*
X151610785Y-109065785D01*
X151647071Y-109102071D01*
X151665214Y-109138357D01*
X151937357Y-127063500D02*
X151755928Y-127190500D01*
X151937357Y-127281214D02*
X151556357Y-127281214D01*
X151556357Y-127136071D01*
X151574500Y-127099785D01*
X151592642Y-127081642D01*
X151628928Y-127063500D01*
X151683357Y-127063500D01*
X151719642Y-127081642D01*
X151737785Y-127099785D01*
X151755928Y-127136071D01*
X151755928Y-127281214D01*
X151556357Y-126736928D02*
X151556357Y-126809500D01*
X151574500Y-126845785D01*
X151592642Y-126863928D01*
X151647071Y-126900214D01*
X151719642Y-126918357D01*
X151864785Y-126918357D01*
X151901071Y-126900214D01*
X151919214Y-126882071D01*
X151937357Y-126845785D01*
X151937357Y-126773214D01*
X151919214Y-126736928D01*
X151901071Y-126718785D01*
X151864785Y-126700642D01*
X151774071Y-126700642D01*
X151737785Y-126718785D01*
X151719642Y-126736928D01*
X151701500Y-126773214D01*
X151701500Y-126845785D01*
X151719642Y-126882071D01*
X151737785Y-126900214D01*
X151774071Y-126918357D01*
X151937357Y-116903500D02*
X151755928Y-117030500D01*
X151937357Y-117121214D02*
X151556357Y-117121214D01*
X151556357Y-116976071D01*
X151574500Y-116939785D01*
X151592642Y-116921642D01*
X151628928Y-116903500D01*
X151683357Y-116903500D01*
X151719642Y-116921642D01*
X151737785Y-116939785D01*
X151755928Y-116976071D01*
X151755928Y-117121214D01*
X151556357Y-116558785D02*
X151556357Y-116740214D01*
X151737785Y-116758357D01*
X151719642Y-116740214D01*
X151701500Y-116703928D01*
X151701500Y-116613214D01*
X151719642Y-116576928D01*
X151737785Y-116558785D01*
X151774071Y-116540642D01*
X151864785Y-116540642D01*
X151901071Y-116558785D01*
X151919214Y-116576928D01*
X151937357Y-116613214D01*
X151937357Y-116703928D01*
X151919214Y-116740214D01*
X151901071Y-116758357D01*
X151937357Y-124523500D02*
X151755928Y-124650500D01*
X151937357Y-124741214D02*
X151556357Y-124741214D01*
X151556357Y-124596071D01*
X151574500Y-124559785D01*
X151592642Y-124541642D01*
X151628928Y-124523500D01*
X151683357Y-124523500D01*
X151719642Y-124541642D01*
X151737785Y-124559785D01*
X151755928Y-124596071D01*
X151755928Y-124741214D01*
X151683357Y-124196928D02*
X151937357Y-124196928D01*
X151538214Y-124287642D02*
X151810357Y-124378357D01*
X151810357Y-124142500D01*
X151937357Y-119443500D02*
X151755928Y-119570500D01*
X151937357Y-119661214D02*
X151556357Y-119661214D01*
X151556357Y-119516071D01*
X151574500Y-119479785D01*
X151592642Y-119461642D01*
X151628928Y-119443500D01*
X151683357Y-119443500D01*
X151719642Y-119461642D01*
X151737785Y-119479785D01*
X151755928Y-119516071D01*
X151755928Y-119661214D01*
X151556357Y-119316500D02*
X151556357Y-119080642D01*
X151701500Y-119207642D01*
X151701500Y-119153214D01*
X151719642Y-119116928D01*
X151737785Y-119098785D01*
X151774071Y-119080642D01*
X151864785Y-119080642D01*
X151901071Y-119098785D01*
X151919214Y-119116928D01*
X151937357Y-119153214D01*
X151937357Y-119262071D01*
X151919214Y-119298357D01*
X151901071Y-119316500D01*
X151937357Y-121983500D02*
X151755928Y-122110500D01*
X151937357Y-122201214D02*
X151556357Y-122201214D01*
X151556357Y-122056071D01*
X151574500Y-122019785D01*
X151592642Y-122001642D01*
X151628928Y-121983500D01*
X151683357Y-121983500D01*
X151719642Y-122001642D01*
X151737785Y-122019785D01*
X151755928Y-122056071D01*
X151755928Y-122201214D01*
X151592642Y-121838357D02*
X151574500Y-121820214D01*
X151556357Y-121783928D01*
X151556357Y-121693214D01*
X151574500Y-121656928D01*
X151592642Y-121638785D01*
X151628928Y-121620642D01*
X151665214Y-121620642D01*
X151719642Y-121638785D01*
X151937357Y-121856500D01*
X151937357Y-121620642D01*
X159258000Y-127426357D02*
X159258000Y-127698500D01*
X159239857Y-127752928D01*
X159203571Y-127789214D01*
X159149142Y-127807357D01*
X159112857Y-127807357D01*
X159421285Y-127462642D02*
X159439428Y-127444500D01*
X159475714Y-127426357D01*
X159566428Y-127426357D01*
X159602714Y-127444500D01*
X159620857Y-127462642D01*
X159639000Y-127498928D01*
X159639000Y-127535214D01*
X159620857Y-127589642D01*
X159403142Y-127807357D01*
X159639000Y-127807357D01*
X141234214Y-112776000D02*
X141252357Y-112721571D01*
X141252357Y-112630857D01*
X141234214Y-112594571D01*
X141216071Y-112576428D01*
X141179785Y-112558285D01*
X141143500Y-112558285D01*
X141107214Y-112576428D01*
X141089071Y-112594571D01*
X141070928Y-112630857D01*
X141052785Y-112703428D01*
X141034642Y-112739714D01*
X141016500Y-112757857D01*
X140980214Y-112776000D01*
X140943928Y-112776000D01*
X140907642Y-112757857D01*
X140889500Y-112739714D01*
X140871357Y-112703428D01*
X140871357Y-112612714D01*
X140889500Y-112558285D01*
X140871357Y-112431285D02*
X141252357Y-112340571D01*
X140980214Y-112268000D01*
X141252357Y-112195428D01*
X140871357Y-112104714D01*
X141252357Y-111760000D02*
X141252357Y-111977714D01*
X141252357Y-111868857D02*
X140871357Y-111868857D01*
X140925785Y-111905142D01*
X140962071Y-111941428D01*
X140980214Y-111977714D01*
X151937357Y-114363500D02*
X151755928Y-114490500D01*
X151937357Y-114581214D02*
X151556357Y-114581214D01*
X151556357Y-114436071D01*
X151574500Y-114399785D01*
X151592642Y-114381642D01*
X151628928Y-114363500D01*
X151683357Y-114363500D01*
X151719642Y-114381642D01*
X151737785Y-114399785D01*
X151755928Y-114436071D01*
X151755928Y-114581214D01*
X151937357Y-114000642D02*
X151937357Y-114218357D01*
X151937357Y-114109500D02*
X151556357Y-114109500D01*
X151610785Y-114145785D01*
X151647071Y-114182071D01*
X151665214Y-114218357D01*
X144916071Y-120078500D02*
X144934214Y-120096642D01*
X144952357Y-120151071D01*
X144952357Y-120187357D01*
X144934214Y-120241785D01*
X144897928Y-120278071D01*
X144861642Y-120296214D01*
X144789071Y-120314357D01*
X144734642Y-120314357D01*
X144662071Y-120296214D01*
X144625785Y-120278071D01*
X144589500Y-120241785D01*
X144571357Y-120187357D01*
X144571357Y-120151071D01*
X144589500Y-120096642D01*
X144607642Y-120078500D01*
X144607642Y-119933357D02*
X144589500Y-119915214D01*
X144571357Y-119878928D01*
X144571357Y-119788214D01*
X144589500Y-119751928D01*
X144607642Y-119733785D01*
X144643928Y-119715642D01*
X144680214Y-119715642D01*
X144734642Y-119733785D01*
X144952357Y-119951500D01*
X144952357Y-119715642D01*
X140471071Y-120078500D02*
X140489214Y-120096642D01*
X140507357Y-120151071D01*
X140507357Y-120187357D01*
X140489214Y-120241785D01*
X140452928Y-120278071D01*
X140416642Y-120296214D01*
X140344071Y-120314357D01*
X140289642Y-120314357D01*
X140217071Y-120296214D01*
X140180785Y-120278071D01*
X140144500Y-120241785D01*
X140126357Y-120187357D01*
X140126357Y-120151071D01*
X140144500Y-120096642D01*
X140162642Y-120078500D01*
X140507357Y-119715642D02*
X140507357Y-119933357D01*
X140507357Y-119824500D02*
X140126357Y-119824500D01*
X140180785Y-119860785D01*
X140217071Y-119897071D01*
X140235214Y-119933357D01*
X147111357Y-122845285D02*
X147419785Y-122845285D01*
X147456071Y-122827142D01*
X147474214Y-122809000D01*
X147492357Y-122772714D01*
X147492357Y-122700142D01*
X147474214Y-122663857D01*
X147456071Y-122645714D01*
X147419785Y-122627571D01*
X147111357Y-122627571D01*
X147147642Y-122464285D02*
X147129500Y-122446142D01*
X147111357Y-122409857D01*
X147111357Y-122319142D01*
X147129500Y-122282857D01*
X147147642Y-122264714D01*
X147183928Y-122246571D01*
X147220214Y-122246571D01*
X147274642Y-122264714D01*
X147492357Y-122482428D01*
X147492357Y-122246571D01*
X119098375Y-119976533D02*
X118905941Y-120168967D01*
X118854625Y-120194625D01*
X118803309Y-120194625D01*
X118751993Y-120168967D01*
X118726336Y-120143309D01*
X119098375Y-120515349D02*
X118944427Y-120361401D01*
X119021401Y-120438375D02*
X119290809Y-120168967D01*
X119226664Y-120181796D01*
X119175348Y-120181796D01*
X119136862Y-120168967D01*
M02*
