M48
; DRILL file {KiCad (5.1.5)-3} date 12/26/2019 10:02:23 AM
; FORMAT={-:-/ absolute / inch / decimal}
; #@! TF.CreationDate,2019-12-26T10:02:23-08:00
; #@! TF.GenerationSoftware,Kicad,Pcbnew,(5.1.5)-3
; #@! TF.FileFunction,Plated,1,2,PTH
FMAT,2
INCH
T1C0.0256
T2C0.0394
%
G90
G05
T1
X6.3594Y-4.4272
X6.3594Y-4.5059
X6.3594Y-4.5846
X6.3594Y-4.6634
X6.3594Y-4.7421
X6.3594Y-4.8209
X6.3988Y-4.3488
X6.3988Y-4.9
X6.4776Y-4.3488
X6.4776Y-4.9
X6.5563Y-4.3488
X6.5563Y-4.9
X6.635Y-4.3488
X6.635Y-4.9
X6.7138Y-4.3488
X6.7138Y-4.9
X6.7925Y-4.3488
X6.7925Y-4.9
X6.8713Y-4.3488
X6.8713Y-4.9
X6.95Y-4.3488
X6.95Y-4.9
T2
X6.3Y-5.1
X6.4Y-5.1
X6.5Y-5.1
X6.6Y-5.1
X6.7Y-5.1
X6.8Y-5.1
X6.9Y-5.1
X7.0Y-5.1
T0
M30
