G04 #@! TF.GenerationSoftware,KiCad,Pcbnew,(5.1.5)-3*
G04 #@! TF.CreationDate,2019-12-26T10:02:20-08:00*
G04 #@! TF.ProjectId,esp8266_bcard,65737038-3236-4365-9f62-636172642e6b,rev?*
G04 #@! TF.SameCoordinates,Original*
G04 #@! TF.FileFunction,Soldermask,Bot*
G04 #@! TF.FilePolarity,Negative*
%FSLAX46Y46*%
G04 Gerber Fmt 4.6, Leading zero omitted, Abs format (unit mm)*
G04 Created by KiCad (PCBNEW (5.1.5)-3) date 2019-12-26 10:02:20*
%MOMM*%
%LPD*%
G04 APERTURE LIST*
%ADD10C,0.100000*%
G04 APERTURE END LIST*
D10*
G36*
X178701000Y-130441000D02*
G01*
X176899000Y-130441000D01*
X176899000Y-128639000D01*
X178701000Y-128639000D01*
X178701000Y-130441000D01*
G37*
G36*
X172833512Y-128643927D02*
G01*
X172982812Y-128673624D01*
X173146784Y-128741544D01*
X173294354Y-128840147D01*
X173419853Y-128965646D01*
X173518456Y-129113216D01*
X173586376Y-129277188D01*
X173621000Y-129451259D01*
X173621000Y-129628741D01*
X173586376Y-129802812D01*
X173518456Y-129966784D01*
X173419853Y-130114354D01*
X173294354Y-130239853D01*
X173146784Y-130338456D01*
X172982812Y-130406376D01*
X172833512Y-130436073D01*
X172808742Y-130441000D01*
X172631258Y-130441000D01*
X172606488Y-130436073D01*
X172457188Y-130406376D01*
X172293216Y-130338456D01*
X172145646Y-130239853D01*
X172020147Y-130114354D01*
X171921544Y-129966784D01*
X171853624Y-129802812D01*
X171819000Y-129628741D01*
X171819000Y-129451259D01*
X171853624Y-129277188D01*
X171921544Y-129113216D01*
X172020147Y-128965646D01*
X172145646Y-128840147D01*
X172293216Y-128741544D01*
X172457188Y-128673624D01*
X172606488Y-128643927D01*
X172631258Y-128639000D01*
X172808742Y-128639000D01*
X172833512Y-128643927D01*
G37*
G36*
X170293512Y-128643927D02*
G01*
X170442812Y-128673624D01*
X170606784Y-128741544D01*
X170754354Y-128840147D01*
X170879853Y-128965646D01*
X170978456Y-129113216D01*
X171046376Y-129277188D01*
X171081000Y-129451259D01*
X171081000Y-129628741D01*
X171046376Y-129802812D01*
X170978456Y-129966784D01*
X170879853Y-130114354D01*
X170754354Y-130239853D01*
X170606784Y-130338456D01*
X170442812Y-130406376D01*
X170293512Y-130436073D01*
X170268742Y-130441000D01*
X170091258Y-130441000D01*
X170066488Y-130436073D01*
X169917188Y-130406376D01*
X169753216Y-130338456D01*
X169605646Y-130239853D01*
X169480147Y-130114354D01*
X169381544Y-129966784D01*
X169313624Y-129802812D01*
X169279000Y-129628741D01*
X169279000Y-129451259D01*
X169313624Y-129277188D01*
X169381544Y-129113216D01*
X169480147Y-128965646D01*
X169605646Y-128840147D01*
X169753216Y-128741544D01*
X169917188Y-128673624D01*
X170066488Y-128643927D01*
X170091258Y-128639000D01*
X170268742Y-128639000D01*
X170293512Y-128643927D01*
G37*
G36*
X167753512Y-128643927D02*
G01*
X167902812Y-128673624D01*
X168066784Y-128741544D01*
X168214354Y-128840147D01*
X168339853Y-128965646D01*
X168438456Y-129113216D01*
X168506376Y-129277188D01*
X168541000Y-129451259D01*
X168541000Y-129628741D01*
X168506376Y-129802812D01*
X168438456Y-129966784D01*
X168339853Y-130114354D01*
X168214354Y-130239853D01*
X168066784Y-130338456D01*
X167902812Y-130406376D01*
X167753512Y-130436073D01*
X167728742Y-130441000D01*
X167551258Y-130441000D01*
X167526488Y-130436073D01*
X167377188Y-130406376D01*
X167213216Y-130338456D01*
X167065646Y-130239853D01*
X166940147Y-130114354D01*
X166841544Y-129966784D01*
X166773624Y-129802812D01*
X166739000Y-129628741D01*
X166739000Y-129451259D01*
X166773624Y-129277188D01*
X166841544Y-129113216D01*
X166940147Y-128965646D01*
X167065646Y-128840147D01*
X167213216Y-128741544D01*
X167377188Y-128673624D01*
X167526488Y-128643927D01*
X167551258Y-128639000D01*
X167728742Y-128639000D01*
X167753512Y-128643927D01*
G37*
G36*
X165213512Y-128643927D02*
G01*
X165362812Y-128673624D01*
X165526784Y-128741544D01*
X165674354Y-128840147D01*
X165799853Y-128965646D01*
X165898456Y-129113216D01*
X165966376Y-129277188D01*
X166001000Y-129451259D01*
X166001000Y-129628741D01*
X165966376Y-129802812D01*
X165898456Y-129966784D01*
X165799853Y-130114354D01*
X165674354Y-130239853D01*
X165526784Y-130338456D01*
X165362812Y-130406376D01*
X165213512Y-130436073D01*
X165188742Y-130441000D01*
X165011258Y-130441000D01*
X164986488Y-130436073D01*
X164837188Y-130406376D01*
X164673216Y-130338456D01*
X164525646Y-130239853D01*
X164400147Y-130114354D01*
X164301544Y-129966784D01*
X164233624Y-129802812D01*
X164199000Y-129628741D01*
X164199000Y-129451259D01*
X164233624Y-129277188D01*
X164301544Y-129113216D01*
X164400147Y-128965646D01*
X164525646Y-128840147D01*
X164673216Y-128741544D01*
X164837188Y-128673624D01*
X164986488Y-128643927D01*
X165011258Y-128639000D01*
X165188742Y-128639000D01*
X165213512Y-128643927D01*
G37*
G36*
X162673512Y-128643927D02*
G01*
X162822812Y-128673624D01*
X162986784Y-128741544D01*
X163134354Y-128840147D01*
X163259853Y-128965646D01*
X163358456Y-129113216D01*
X163426376Y-129277188D01*
X163461000Y-129451259D01*
X163461000Y-129628741D01*
X163426376Y-129802812D01*
X163358456Y-129966784D01*
X163259853Y-130114354D01*
X163134354Y-130239853D01*
X162986784Y-130338456D01*
X162822812Y-130406376D01*
X162673512Y-130436073D01*
X162648742Y-130441000D01*
X162471258Y-130441000D01*
X162446488Y-130436073D01*
X162297188Y-130406376D01*
X162133216Y-130338456D01*
X161985646Y-130239853D01*
X161860147Y-130114354D01*
X161761544Y-129966784D01*
X161693624Y-129802812D01*
X161659000Y-129628741D01*
X161659000Y-129451259D01*
X161693624Y-129277188D01*
X161761544Y-129113216D01*
X161860147Y-128965646D01*
X161985646Y-128840147D01*
X162133216Y-128741544D01*
X162297188Y-128673624D01*
X162446488Y-128643927D01*
X162471258Y-128639000D01*
X162648742Y-128639000D01*
X162673512Y-128643927D01*
G37*
G36*
X160133512Y-128643927D02*
G01*
X160282812Y-128673624D01*
X160446784Y-128741544D01*
X160594354Y-128840147D01*
X160719853Y-128965646D01*
X160818456Y-129113216D01*
X160886376Y-129277188D01*
X160921000Y-129451259D01*
X160921000Y-129628741D01*
X160886376Y-129802812D01*
X160818456Y-129966784D01*
X160719853Y-130114354D01*
X160594354Y-130239853D01*
X160446784Y-130338456D01*
X160282812Y-130406376D01*
X160133512Y-130436073D01*
X160108742Y-130441000D01*
X159931258Y-130441000D01*
X159906488Y-130436073D01*
X159757188Y-130406376D01*
X159593216Y-130338456D01*
X159445646Y-130239853D01*
X159320147Y-130114354D01*
X159221544Y-129966784D01*
X159153624Y-129802812D01*
X159119000Y-129628741D01*
X159119000Y-129451259D01*
X159153624Y-129277188D01*
X159221544Y-129113216D01*
X159320147Y-128965646D01*
X159445646Y-128840147D01*
X159593216Y-128741544D01*
X159757188Y-128673624D01*
X159906488Y-128643927D01*
X159931258Y-128639000D01*
X160108742Y-128639000D01*
X160133512Y-128643927D01*
G37*
G36*
X175373512Y-128643927D02*
G01*
X175522812Y-128673624D01*
X175686784Y-128741544D01*
X175834354Y-128840147D01*
X175959853Y-128965646D01*
X176058456Y-129113216D01*
X176126376Y-129277188D01*
X176161000Y-129451259D01*
X176161000Y-129628741D01*
X176126376Y-129802812D01*
X176058456Y-129966784D01*
X175959853Y-130114354D01*
X175834354Y-130239853D01*
X175686784Y-130338456D01*
X175522812Y-130406376D01*
X175373512Y-130436073D01*
X175348742Y-130441000D01*
X175171258Y-130441000D01*
X175146488Y-130436073D01*
X174997188Y-130406376D01*
X174833216Y-130338456D01*
X174685646Y-130239853D01*
X174560147Y-130114354D01*
X174461544Y-129966784D01*
X174393624Y-129802812D01*
X174359000Y-129628741D01*
X174359000Y-129451259D01*
X174393624Y-129277188D01*
X174461544Y-129113216D01*
X174560147Y-128965646D01*
X174685646Y-128840147D01*
X174833216Y-128741544D01*
X174997188Y-128673624D01*
X175146488Y-128643927D01*
X175171258Y-128639000D01*
X175348742Y-128639000D01*
X175373512Y-128643927D01*
G37*
G36*
X168647818Y-123867696D02*
G01*
X168761105Y-123902062D01*
X168865512Y-123957869D01*
X168957027Y-124032973D01*
X169032131Y-124124488D01*
X169087938Y-124228895D01*
X169122304Y-124342182D01*
X169131000Y-124430481D01*
X169131000Y-125889519D01*
X169122304Y-125977818D01*
X169087938Y-126091105D01*
X169032131Y-126195512D01*
X169032130Y-126195513D01*
X168957027Y-126287027D01*
X168919362Y-126317937D01*
X168865511Y-126362131D01*
X168761104Y-126417938D01*
X168647817Y-126452304D01*
X168530000Y-126463907D01*
X168412182Y-126452304D01*
X168298895Y-126417938D01*
X168194488Y-126362131D01*
X168180572Y-126350711D01*
X168102973Y-126287027D01*
X168027870Y-126195512D01*
X168027869Y-126195511D01*
X167972062Y-126091104D01*
X167937696Y-125977817D01*
X167929000Y-125889518D01*
X167929001Y-124430481D01*
X167937697Y-124342182D01*
X167972063Y-124228895D01*
X168027870Y-124124488D01*
X168102974Y-124032973D01*
X168194489Y-123957869D01*
X168298896Y-123902062D01*
X168412183Y-123867696D01*
X168530000Y-123856093D01*
X168647818Y-123867696D01*
G37*
G36*
X162647818Y-123867696D02*
G01*
X162761105Y-123902062D01*
X162865512Y-123957869D01*
X162957027Y-124032973D01*
X163032131Y-124124488D01*
X163087938Y-124228895D01*
X163122304Y-124342182D01*
X163131000Y-124430481D01*
X163131000Y-125889519D01*
X163122304Y-125977818D01*
X163087938Y-126091105D01*
X163032131Y-126195512D01*
X163032130Y-126195513D01*
X162957027Y-126287027D01*
X162919362Y-126317937D01*
X162865511Y-126362131D01*
X162761104Y-126417938D01*
X162647817Y-126452304D01*
X162530000Y-126463907D01*
X162412182Y-126452304D01*
X162298895Y-126417938D01*
X162194488Y-126362131D01*
X162180572Y-126350711D01*
X162102973Y-126287027D01*
X162027870Y-126195512D01*
X162027869Y-126195511D01*
X161972062Y-126091104D01*
X161937696Y-125977817D01*
X161929000Y-125889518D01*
X161929001Y-124430481D01*
X161937697Y-124342182D01*
X161972063Y-124228895D01*
X162027870Y-124124488D01*
X162102974Y-124032973D01*
X162194489Y-123957869D01*
X162298896Y-123902062D01*
X162412183Y-123867696D01*
X162530000Y-123856093D01*
X162647818Y-123867696D01*
G37*
G36*
X166647818Y-123867696D02*
G01*
X166761105Y-123902062D01*
X166865512Y-123957869D01*
X166957027Y-124032973D01*
X167032131Y-124124488D01*
X167087938Y-124228895D01*
X167122304Y-124342182D01*
X167131000Y-124430481D01*
X167131000Y-125889519D01*
X167122304Y-125977818D01*
X167087938Y-126091105D01*
X167032131Y-126195512D01*
X167032130Y-126195513D01*
X166957027Y-126287027D01*
X166919362Y-126317937D01*
X166865511Y-126362131D01*
X166761104Y-126417938D01*
X166647817Y-126452304D01*
X166530000Y-126463907D01*
X166412182Y-126452304D01*
X166298895Y-126417938D01*
X166194488Y-126362131D01*
X166180572Y-126350711D01*
X166102973Y-126287027D01*
X166027870Y-126195512D01*
X166027869Y-126195511D01*
X165972062Y-126091104D01*
X165937696Y-125977817D01*
X165929000Y-125889518D01*
X165929001Y-124430481D01*
X165937697Y-124342182D01*
X165972063Y-124228895D01*
X166027870Y-124124488D01*
X166102974Y-124032973D01*
X166194489Y-123957869D01*
X166298896Y-123902062D01*
X166412183Y-123867696D01*
X166530000Y-123856093D01*
X166647818Y-123867696D01*
G37*
G36*
X170647818Y-123867696D02*
G01*
X170761105Y-123902062D01*
X170865512Y-123957869D01*
X170957027Y-124032973D01*
X171032131Y-124124488D01*
X171087938Y-124228895D01*
X171122304Y-124342182D01*
X171131000Y-124430481D01*
X171131000Y-125889519D01*
X171122304Y-125977818D01*
X171087938Y-126091105D01*
X171032131Y-126195512D01*
X171032130Y-126195513D01*
X170957027Y-126287027D01*
X170919362Y-126317937D01*
X170865511Y-126362131D01*
X170761104Y-126417938D01*
X170647817Y-126452304D01*
X170530000Y-126463907D01*
X170412182Y-126452304D01*
X170298895Y-126417938D01*
X170194488Y-126362131D01*
X170180572Y-126350711D01*
X170102973Y-126287027D01*
X170027870Y-126195512D01*
X170027869Y-126195511D01*
X169972062Y-126091104D01*
X169937696Y-125977817D01*
X169929000Y-125889518D01*
X169929001Y-124430481D01*
X169937697Y-124342182D01*
X169972063Y-124228895D01*
X170027870Y-124124488D01*
X170102974Y-124032973D01*
X170194489Y-123957869D01*
X170298896Y-123902062D01*
X170412183Y-123867696D01*
X170530000Y-123856093D01*
X170647818Y-123867696D01*
G37*
G36*
X172647818Y-123867696D02*
G01*
X172761105Y-123902062D01*
X172865512Y-123957869D01*
X172957027Y-124032973D01*
X173032131Y-124124488D01*
X173087938Y-124228895D01*
X173122304Y-124342182D01*
X173131000Y-124430481D01*
X173131000Y-125889519D01*
X173122304Y-125977818D01*
X173087938Y-126091105D01*
X173032131Y-126195512D01*
X173032130Y-126195513D01*
X172957027Y-126287027D01*
X172919362Y-126317937D01*
X172865511Y-126362131D01*
X172761104Y-126417938D01*
X172647817Y-126452304D01*
X172530000Y-126463907D01*
X172412182Y-126452304D01*
X172298895Y-126417938D01*
X172194488Y-126362131D01*
X172180572Y-126350711D01*
X172102973Y-126287027D01*
X172027870Y-126195512D01*
X172027869Y-126195511D01*
X171972062Y-126091104D01*
X171937696Y-125977817D01*
X171929000Y-125889518D01*
X171929001Y-124430481D01*
X171937697Y-124342182D01*
X171972063Y-124228895D01*
X172027870Y-124124488D01*
X172102974Y-124032973D01*
X172194489Y-123957869D01*
X172298896Y-123902062D01*
X172412183Y-123867696D01*
X172530000Y-123856093D01*
X172647818Y-123867696D01*
G37*
G36*
X174647818Y-123867696D02*
G01*
X174761105Y-123902062D01*
X174865512Y-123957869D01*
X174957027Y-124032973D01*
X175032131Y-124124488D01*
X175087938Y-124228895D01*
X175122304Y-124342182D01*
X175131000Y-124430481D01*
X175131000Y-125889519D01*
X175122304Y-125977818D01*
X175087938Y-126091105D01*
X175032131Y-126195512D01*
X175032130Y-126195513D01*
X174957027Y-126287027D01*
X174919362Y-126317937D01*
X174865511Y-126362131D01*
X174761104Y-126417938D01*
X174647817Y-126452304D01*
X174530000Y-126463907D01*
X174412182Y-126452304D01*
X174298895Y-126417938D01*
X174194488Y-126362131D01*
X174180572Y-126350711D01*
X174102973Y-126287027D01*
X174027870Y-126195512D01*
X174027869Y-126195511D01*
X173972062Y-126091104D01*
X173937696Y-125977817D01*
X173929000Y-125889518D01*
X173929001Y-124430481D01*
X173937697Y-124342182D01*
X173972063Y-124228895D01*
X174027870Y-124124488D01*
X174102974Y-124032973D01*
X174194489Y-123957869D01*
X174298896Y-123902062D01*
X174412183Y-123867696D01*
X174530000Y-123856093D01*
X174647818Y-123867696D01*
G37*
G36*
X176647818Y-123867696D02*
G01*
X176761105Y-123902062D01*
X176865512Y-123957869D01*
X176957027Y-124032973D01*
X177032131Y-124124488D01*
X177087938Y-124228895D01*
X177122304Y-124342182D01*
X177131000Y-124430481D01*
X177131000Y-125889519D01*
X177122304Y-125977818D01*
X177087938Y-126091105D01*
X177032131Y-126195512D01*
X177032130Y-126195513D01*
X176957027Y-126287027D01*
X176919362Y-126317937D01*
X176865511Y-126362131D01*
X176761104Y-126417938D01*
X176647817Y-126452304D01*
X176530000Y-126463907D01*
X176412182Y-126452304D01*
X176298895Y-126417938D01*
X176194488Y-126362131D01*
X176180572Y-126350711D01*
X176102973Y-126287027D01*
X176027870Y-126195512D01*
X176027869Y-126195511D01*
X175972062Y-126091104D01*
X175937696Y-125977817D01*
X175929000Y-125889518D01*
X175929001Y-124430481D01*
X175937697Y-124342182D01*
X175972063Y-124228895D01*
X176027870Y-124124488D01*
X176102974Y-124032973D01*
X176194489Y-123957869D01*
X176298896Y-123902062D01*
X176412183Y-123867696D01*
X176530000Y-123856093D01*
X176647818Y-123867696D01*
G37*
G36*
X164647818Y-123767696D02*
G01*
X164761105Y-123802062D01*
X164865512Y-123857869D01*
X164957027Y-123932973D01*
X165032131Y-124024488D01*
X165087938Y-124128895D01*
X165122304Y-124242182D01*
X165131000Y-124330481D01*
X165131000Y-125789519D01*
X165122304Y-125877818D01*
X165087938Y-125991105D01*
X165032131Y-126095512D01*
X165032130Y-126095513D01*
X164957027Y-126187027D01*
X164881923Y-126248662D01*
X164865511Y-126262131D01*
X164761104Y-126317938D01*
X164647817Y-126352304D01*
X164530000Y-126363907D01*
X164412182Y-126352304D01*
X164298895Y-126317938D01*
X164194488Y-126262131D01*
X164180572Y-126250711D01*
X164102973Y-126187027D01*
X164027870Y-126095512D01*
X164025514Y-126091105D01*
X163972062Y-125991104D01*
X163937696Y-125877817D01*
X163929000Y-125789518D01*
X163929001Y-124330481D01*
X163937697Y-124242182D01*
X163972063Y-124128895D01*
X164027870Y-124024488D01*
X164102974Y-123932973D01*
X164194489Y-123857869D01*
X164298896Y-123802062D01*
X164412183Y-123767696D01*
X164530000Y-123756093D01*
X164647818Y-123767696D01*
G37*
G36*
X161647818Y-121857696D02*
G01*
X161761105Y-121892062D01*
X161865512Y-121947869D01*
X161957027Y-122022973D01*
X162032131Y-122114488D01*
X162087938Y-122218895D01*
X162122304Y-122332182D01*
X162133907Y-122450000D01*
X162122304Y-122567818D01*
X162087938Y-122681105D01*
X162032131Y-122785512D01*
X161957027Y-122877027D01*
X161865512Y-122952131D01*
X161761105Y-123007938D01*
X161647818Y-123042304D01*
X161559519Y-123051000D01*
X160100481Y-123051000D01*
X160012182Y-123042304D01*
X159898895Y-123007938D01*
X159794488Y-122952131D01*
X159702973Y-122877027D01*
X159627869Y-122785512D01*
X159572062Y-122681105D01*
X159537696Y-122567818D01*
X159526093Y-122450000D01*
X159537696Y-122332182D01*
X159572062Y-122218895D01*
X159627869Y-122114488D01*
X159702973Y-122022973D01*
X159794488Y-121947869D01*
X159898895Y-121892062D01*
X160012182Y-121857696D01*
X160100481Y-121849000D01*
X161559519Y-121849000D01*
X161647818Y-121857696D01*
G37*
G36*
X161647818Y-119857696D02*
G01*
X161761105Y-119892062D01*
X161865512Y-119947869D01*
X161957027Y-120022973D01*
X162032131Y-120114488D01*
X162087938Y-120218895D01*
X162122304Y-120332182D01*
X162133907Y-120450000D01*
X162122304Y-120567818D01*
X162087938Y-120681105D01*
X162032131Y-120785512D01*
X161957027Y-120877027D01*
X161865512Y-120952131D01*
X161761105Y-121007938D01*
X161647818Y-121042304D01*
X161559519Y-121051000D01*
X160100481Y-121051000D01*
X160012182Y-121042304D01*
X159898895Y-121007938D01*
X159794488Y-120952131D01*
X159702973Y-120877027D01*
X159627869Y-120785512D01*
X159572062Y-120681105D01*
X159537696Y-120567818D01*
X159526093Y-120450000D01*
X159537696Y-120332182D01*
X159572062Y-120218895D01*
X159627869Y-120114488D01*
X159702973Y-120022973D01*
X159794488Y-119947869D01*
X159898895Y-119892062D01*
X160012182Y-119857696D01*
X160100481Y-119849000D01*
X161559519Y-119849000D01*
X161647818Y-119857696D01*
G37*
G36*
X161647818Y-117857696D02*
G01*
X161761105Y-117892062D01*
X161865512Y-117947869D01*
X161957027Y-118022973D01*
X162032131Y-118114488D01*
X162087938Y-118218895D01*
X162122304Y-118332182D01*
X162133907Y-118450000D01*
X162122304Y-118567818D01*
X162087938Y-118681105D01*
X162032131Y-118785512D01*
X161957027Y-118877027D01*
X161865512Y-118952131D01*
X161761105Y-119007938D01*
X161647818Y-119042304D01*
X161559519Y-119051000D01*
X160100481Y-119051000D01*
X160012182Y-119042304D01*
X159898895Y-119007938D01*
X159794488Y-118952131D01*
X159702973Y-118877027D01*
X159627869Y-118785512D01*
X159572062Y-118681105D01*
X159537696Y-118567818D01*
X159526093Y-118450000D01*
X159537696Y-118332182D01*
X159572062Y-118218895D01*
X159627869Y-118114488D01*
X159702973Y-118022973D01*
X159794488Y-117947869D01*
X159898895Y-117892062D01*
X160012182Y-117857696D01*
X160100481Y-117849000D01*
X161559519Y-117849000D01*
X161647818Y-117857696D01*
G37*
G36*
X161647818Y-115857696D02*
G01*
X161761105Y-115892062D01*
X161865512Y-115947869D01*
X161957027Y-116022973D01*
X162032131Y-116114488D01*
X162087938Y-116218895D01*
X162122304Y-116332182D01*
X162133907Y-116450000D01*
X162122304Y-116567818D01*
X162087938Y-116681105D01*
X162032131Y-116785512D01*
X161957027Y-116877027D01*
X161865512Y-116952131D01*
X161761105Y-117007938D01*
X161647818Y-117042304D01*
X161559519Y-117051000D01*
X160100481Y-117051000D01*
X160012182Y-117042304D01*
X159898895Y-117007938D01*
X159794488Y-116952131D01*
X159702973Y-116877027D01*
X159627869Y-116785512D01*
X159572062Y-116681105D01*
X159537696Y-116567818D01*
X159526093Y-116450000D01*
X159537696Y-116332182D01*
X159572062Y-116218895D01*
X159627869Y-116114488D01*
X159702973Y-116022973D01*
X159794488Y-115947869D01*
X159898895Y-115892062D01*
X160012182Y-115857696D01*
X160100481Y-115849000D01*
X161559519Y-115849000D01*
X161647818Y-115857696D01*
G37*
G36*
X161647818Y-113857696D02*
G01*
X161761105Y-113892062D01*
X161865512Y-113947869D01*
X161957027Y-114022973D01*
X162032131Y-114114488D01*
X162087938Y-114218895D01*
X162122304Y-114332182D01*
X162133907Y-114450000D01*
X162122304Y-114567818D01*
X162087938Y-114681105D01*
X162032131Y-114785512D01*
X161957027Y-114877027D01*
X161865512Y-114952131D01*
X161761105Y-115007938D01*
X161647818Y-115042304D01*
X161559519Y-115051000D01*
X160100481Y-115051000D01*
X160012182Y-115042304D01*
X159898895Y-115007938D01*
X159794488Y-114952131D01*
X159702973Y-114877027D01*
X159627869Y-114785512D01*
X159572062Y-114681105D01*
X159537696Y-114567818D01*
X159526093Y-114450000D01*
X159537696Y-114332182D01*
X159572062Y-114218895D01*
X159627869Y-114114488D01*
X159702973Y-114022973D01*
X159794488Y-113947869D01*
X159898895Y-113892062D01*
X160012182Y-113857696D01*
X160100481Y-113849000D01*
X161559519Y-113849000D01*
X161647818Y-113857696D01*
G37*
G36*
X161647818Y-111857696D02*
G01*
X161761105Y-111892062D01*
X161865512Y-111947869D01*
X161957027Y-112022973D01*
X162032131Y-112114488D01*
X162087938Y-112218895D01*
X162122304Y-112332182D01*
X162133907Y-112450000D01*
X162122304Y-112567818D01*
X162087938Y-112681105D01*
X162032131Y-112785512D01*
X161957027Y-112877027D01*
X161865512Y-112952131D01*
X161761105Y-113007938D01*
X161647818Y-113042304D01*
X161559519Y-113051000D01*
X160100481Y-113051000D01*
X160012182Y-113042304D01*
X159898895Y-113007938D01*
X159794488Y-112952131D01*
X159702973Y-112877027D01*
X159627869Y-112785512D01*
X159572062Y-112681105D01*
X159537696Y-112567818D01*
X159526093Y-112450000D01*
X159537696Y-112332182D01*
X159572062Y-112218895D01*
X159627869Y-112114488D01*
X159702973Y-112022973D01*
X159794488Y-111947869D01*
X159898895Y-111892062D01*
X160012182Y-111857696D01*
X160100481Y-111849000D01*
X161559519Y-111849000D01*
X161647818Y-111857696D01*
G37*
G36*
X170647818Y-108467696D02*
G01*
X170761105Y-108502062D01*
X170865512Y-108557869D01*
X170957027Y-108632973D01*
X171032131Y-108724488D01*
X171087938Y-108828895D01*
X171122304Y-108942182D01*
X171131000Y-109030481D01*
X171131000Y-110489519D01*
X171122304Y-110577818D01*
X171087938Y-110691105D01*
X171032131Y-110795512D01*
X171032130Y-110795513D01*
X170957027Y-110887027D01*
X170881923Y-110948662D01*
X170865511Y-110962131D01*
X170761104Y-111017938D01*
X170647817Y-111052304D01*
X170530000Y-111063907D01*
X170412182Y-111052304D01*
X170298895Y-111017938D01*
X170194488Y-110962131D01*
X170180572Y-110950711D01*
X170102973Y-110887027D01*
X170027870Y-110795512D01*
X170027869Y-110795511D01*
X169972062Y-110691104D01*
X169937696Y-110577817D01*
X169929000Y-110489518D01*
X169929001Y-109030481D01*
X169937697Y-108942182D01*
X169972063Y-108828895D01*
X170027870Y-108724488D01*
X170102974Y-108632973D01*
X170194489Y-108557869D01*
X170298896Y-108502062D01*
X170412183Y-108467696D01*
X170530000Y-108456093D01*
X170647818Y-108467696D01*
G37*
G36*
X174647818Y-108467696D02*
G01*
X174761105Y-108502062D01*
X174865512Y-108557869D01*
X174957027Y-108632973D01*
X175032131Y-108724488D01*
X175087938Y-108828895D01*
X175122304Y-108942182D01*
X175131000Y-109030481D01*
X175131000Y-110489519D01*
X175122304Y-110577818D01*
X175087938Y-110691105D01*
X175032131Y-110795512D01*
X175032130Y-110795513D01*
X174957027Y-110887027D01*
X174881923Y-110948662D01*
X174865511Y-110962131D01*
X174761104Y-111017938D01*
X174647817Y-111052304D01*
X174530000Y-111063907D01*
X174412182Y-111052304D01*
X174298895Y-111017938D01*
X174194488Y-110962131D01*
X174180572Y-110950711D01*
X174102973Y-110887027D01*
X174027870Y-110795512D01*
X174027869Y-110795511D01*
X173972062Y-110691104D01*
X173937696Y-110577817D01*
X173929000Y-110489518D01*
X173929001Y-109030481D01*
X173937697Y-108942182D01*
X173972063Y-108828895D01*
X174027870Y-108724488D01*
X174102974Y-108632973D01*
X174194489Y-108557869D01*
X174298896Y-108502062D01*
X174412183Y-108467696D01*
X174530000Y-108456093D01*
X174647818Y-108467696D01*
G37*
G36*
X172647818Y-108467696D02*
G01*
X172761105Y-108502062D01*
X172865512Y-108557869D01*
X172957027Y-108632973D01*
X173032131Y-108724488D01*
X173087938Y-108828895D01*
X173122304Y-108942182D01*
X173131000Y-109030481D01*
X173131000Y-110489519D01*
X173122304Y-110577818D01*
X173087938Y-110691105D01*
X173032131Y-110795512D01*
X173032130Y-110795513D01*
X172957027Y-110887027D01*
X172881923Y-110948662D01*
X172865511Y-110962131D01*
X172761104Y-111017938D01*
X172647817Y-111052304D01*
X172530000Y-111063907D01*
X172412182Y-111052304D01*
X172298895Y-111017938D01*
X172194488Y-110962131D01*
X172180572Y-110950711D01*
X172102973Y-110887027D01*
X172027870Y-110795512D01*
X172027869Y-110795511D01*
X171972062Y-110691104D01*
X171937696Y-110577817D01*
X171929000Y-110489518D01*
X171929001Y-109030481D01*
X171937697Y-108942182D01*
X171972063Y-108828895D01*
X172027870Y-108724488D01*
X172102974Y-108632973D01*
X172194489Y-108557869D01*
X172298896Y-108502062D01*
X172412183Y-108467696D01*
X172530000Y-108456093D01*
X172647818Y-108467696D01*
G37*
G36*
X168647818Y-108467696D02*
G01*
X168761105Y-108502062D01*
X168865512Y-108557869D01*
X168957027Y-108632973D01*
X169032131Y-108724488D01*
X169087938Y-108828895D01*
X169122304Y-108942182D01*
X169131000Y-109030481D01*
X169131000Y-110489519D01*
X169122304Y-110577818D01*
X169087938Y-110691105D01*
X169032131Y-110795512D01*
X169032130Y-110795513D01*
X168957027Y-110887027D01*
X168881923Y-110948662D01*
X168865511Y-110962131D01*
X168761104Y-111017938D01*
X168647817Y-111052304D01*
X168530000Y-111063907D01*
X168412182Y-111052304D01*
X168298895Y-111017938D01*
X168194488Y-110962131D01*
X168180572Y-110950711D01*
X168102973Y-110887027D01*
X168027870Y-110795512D01*
X168027869Y-110795511D01*
X167972062Y-110691104D01*
X167937696Y-110577817D01*
X167929000Y-110489518D01*
X167929001Y-109030481D01*
X167937697Y-108942182D01*
X167972063Y-108828895D01*
X168027870Y-108724488D01*
X168102974Y-108632973D01*
X168194489Y-108557869D01*
X168298896Y-108502062D01*
X168412183Y-108467696D01*
X168530000Y-108456093D01*
X168647818Y-108467696D01*
G37*
G36*
X166647818Y-108467696D02*
G01*
X166761105Y-108502062D01*
X166865512Y-108557869D01*
X166957027Y-108632973D01*
X167032131Y-108724488D01*
X167087938Y-108828895D01*
X167122304Y-108942182D01*
X167131000Y-109030481D01*
X167131000Y-110489519D01*
X167122304Y-110577818D01*
X167087938Y-110691105D01*
X167032131Y-110795512D01*
X167032130Y-110795513D01*
X166957027Y-110887027D01*
X166881923Y-110948662D01*
X166865511Y-110962131D01*
X166761104Y-111017938D01*
X166647817Y-111052304D01*
X166530000Y-111063907D01*
X166412182Y-111052304D01*
X166298895Y-111017938D01*
X166194488Y-110962131D01*
X166180572Y-110950711D01*
X166102973Y-110887027D01*
X166027870Y-110795512D01*
X166027869Y-110795511D01*
X165972062Y-110691104D01*
X165937696Y-110577817D01*
X165929000Y-110489518D01*
X165929001Y-109030481D01*
X165937697Y-108942182D01*
X165972063Y-108828895D01*
X166027870Y-108724488D01*
X166102974Y-108632973D01*
X166194489Y-108557869D01*
X166298896Y-108502062D01*
X166412183Y-108467696D01*
X166530000Y-108456093D01*
X166647818Y-108467696D01*
G37*
G36*
X164647818Y-108467696D02*
G01*
X164761105Y-108502062D01*
X164865512Y-108557869D01*
X164957027Y-108632973D01*
X165032131Y-108724488D01*
X165087938Y-108828895D01*
X165122304Y-108942182D01*
X165131000Y-109030481D01*
X165131000Y-110489519D01*
X165122304Y-110577818D01*
X165087938Y-110691105D01*
X165032131Y-110795512D01*
X165032130Y-110795513D01*
X164957027Y-110887027D01*
X164881923Y-110948662D01*
X164865511Y-110962131D01*
X164761104Y-111017938D01*
X164647817Y-111052304D01*
X164530000Y-111063907D01*
X164412182Y-111052304D01*
X164298895Y-111017938D01*
X164194488Y-110962131D01*
X164180572Y-110950711D01*
X164102973Y-110887027D01*
X164027870Y-110795512D01*
X164027869Y-110795511D01*
X163972062Y-110691104D01*
X163937696Y-110577817D01*
X163929000Y-110489518D01*
X163929001Y-109030481D01*
X163937697Y-108942182D01*
X163972063Y-108828895D01*
X164027870Y-108724488D01*
X164102974Y-108632973D01*
X164194489Y-108557869D01*
X164298896Y-108502062D01*
X164412183Y-108467696D01*
X164530000Y-108456093D01*
X164647818Y-108467696D01*
G37*
G36*
X162647818Y-108467696D02*
G01*
X162761105Y-108502062D01*
X162865512Y-108557869D01*
X162957027Y-108632973D01*
X163032131Y-108724488D01*
X163087938Y-108828895D01*
X163122304Y-108942182D01*
X163131000Y-109030481D01*
X163131000Y-110489519D01*
X163122304Y-110577818D01*
X163087938Y-110691105D01*
X163032131Y-110795512D01*
X163032130Y-110795513D01*
X162957027Y-110887027D01*
X162881923Y-110948662D01*
X162865511Y-110962131D01*
X162761104Y-111017938D01*
X162647817Y-111052304D01*
X162530000Y-111063907D01*
X162412182Y-111052304D01*
X162298895Y-111017938D01*
X162194488Y-110962131D01*
X162180572Y-110950711D01*
X162102973Y-110887027D01*
X162027870Y-110795512D01*
X162027869Y-110795511D01*
X161972062Y-110691104D01*
X161937696Y-110577817D01*
X161929000Y-110489518D01*
X161929001Y-109030481D01*
X161937697Y-108942182D01*
X161972063Y-108828895D01*
X162027870Y-108724488D01*
X162102974Y-108632973D01*
X162194489Y-108557869D01*
X162298896Y-108502062D01*
X162412183Y-108467696D01*
X162530000Y-108456093D01*
X162647818Y-108467696D01*
G37*
G36*
X177131000Y-111061000D02*
G01*
X175929000Y-111061000D01*
X175929000Y-108459000D01*
X177131000Y-108459000D01*
X177131000Y-111061000D01*
G37*
M02*
